<?xml version="1.0"?><svg width="640" height="480" xmlns="http://www.w3.org/2000/svg">
 <title>speech bubbles 6</title>

 <g>
  <title>Layer 1</title>
  <path d="m906.289917,247.992416c8.136841,0 14.687256,2.707565 14.687256,6.070816l0,36.361694c0,3.36322 -6.550415,6.070801 -14.687256,6.070801l-46.571655,0l6.286438,15.730835l-36.000061,-15.730835l-110.001587,0c-8.13678,0 -14.687256,-2.707581 -14.687256,-6.070801l0,-36.361694c0,-3.363251 6.550476,-6.070816 14.687256,-6.070816l186.286865,0z" id="path575" stroke="#000000" stroke-width="3.5" fill-rule="evenodd" fill-opacity="0.75" fill="none"/>
  <path d="m953.796509,382.174713c0,-4.373199 -5.161865,-7.893829 -11.573486,-7.893829l-181.780945,0c-6.411743,0 -11.573486,3.52063 -11.573486,7.893829l0,11.96225l-29.989441,-3.378723l29.989441,19.348663l0,23.894135c0,4.373169 5.161743,7.89386 11.573486,7.89386l181.780945,0c6.411621,0 11.573486,-3.520691 11.573486,-7.89386l0,-51.826324z" id="path576" stroke-width="4.5" stroke="#000000" fill-rule="evenodd" fill-opacity="0.75" fill="none"/>
  <path transform="rotate(-179.862, -195.258, 167.219)" d="m-262.171326,108.856247c-6.701294,0.000023 -12.096222,6.04213 -12.096222,13.547356l0,25.803459c-8.980438,4.13678 -45.632446,-10.299973 -56.176849,-11.444229c26.4198,8.5672 35.960419,26.251129 56.176849,31.892258l0,42.684723c0,7.505188 4.605103,14.241287 11.306366,14.241287l190.793968,-0.69397c6.701302,0 12.096184,-6.04216 12.096184,-13.547318l0,-88.936203c0,-7.505203 -5.394882,-13.547348 -12.096184,-13.547348l-190.004112,-0.000015z" id="path587" stroke-width="4.5" stroke="#000000" fill-rule="evenodd" fill-opacity="0.75" fill="none"/>
  <path d="m535.263977,324.216003c-0.003967,15.020996 -12.338989,27.109985 -27.654968,27.105988l-58.631012,-0.014984c-2.832001,38.069 25.264984,61.657959 -0.38501,37.89798c-25.649994,-23.759979 -12.835999,-13.59198 -35.375977,-37.906982l-337.857513,-0.088013c-15.316898,-0.002991 -27.644398,-12.098999 -27.640198,-27.119995l0.055302,-195.602997c0.004101,-15.020996 12.338497,-27.110001 27.6553,-27.106003l432.249084,0.112c15.316986,0.004005 27.644012,12.099007 27.639984,27.12001l-0.054993,195.602997z" id="path588" stroke-width="4.5" stroke="#000000" fill-rule="evenodd" fill-opacity="0.75" fill="none"/>
  <path d="m903.649902,40.312931c-69.471069,-37.000001 -119.978638,25.421749 -123.978699,62.536709c0,25.034302 15.198914,47.495239 39.232971,62.810852c-14.060974,17.158844 -34.257935,29.345764 -57.361328,33.391663c-33.558228,2.390137 8.968872,0.604492 13.576294,0.604492c28.786987,0 54.721008,-7.873688 72.913696,-20.447571c14.254761,4.604645 30.019531,7.186859 46.617065,7.186859c63.471069,0 114.986694,-37.431427 114.986694,-83.546295c0,-46.114929 -44.515625,-96.53671 -105.986694,-62.536709z" id="path595" stroke-width="4.5" stroke="#000000" fill-rule="evenodd" fill-opacity="0.75" fill="none"/>
 </g>
</svg>